# xmcd
#
# Track frame offsets:
#       150
#       17356
#       33152
#       54276
#       72661
#       91711
#       108157
#       125991
#       141805
#       160527
#       177543
#       194300
#
# Disc length: 3000 seconds
#
# Revision: 0
# Processed by: cddbd v1.5.1PL2 Copyright (c) Steve Scherf et al.
# Submitted via: WaveLab 4.01
#
DISCID=990bb60c
DTITLE=Kitty Hoff - Rauschen
DYEAR=2005
DGENRE=
TTITLE0=Rauschen (01)
TTITLE1=Ein Postpaket (02)
TTITLE2=Leichtmatrose (03)
TTITLE3=Weißt du noch (04)
TTITLE4=Jazzwhisper (05)
TTITLE5=Kleiner Hund (06)
TTITLE6=Csárdás - Komm Schon (07)
TTITLE7=Ewigkeiten (08)
TTITLE8=jetzt (09)
TTITLE9=Glücklich (10)
TTITLE10=Glaubst du mir (11)
TTITLE11=Wundern sie sich nicht (12)
EXTD=
EXTT0=
EXTT1=
EXTT2=
EXTT3=
EXTT4=
EXTT5=
EXTT6=
EXTT7=
EXTT8=
EXTT9=
EXTT10=
EXTT11=
PLAYORDER=
